<svg width="24" height="25" viewBox="0 0 24 25" fill="none" xmlns="http://www.w3.org/2000/svg">
<path d="M17 12.5L12 17.5V14.5H8V10.5H12V7.5L17 12.5ZM21 17C21 17.38 20.79 17.71 20.47 17.88L12.57 22.32C12.41 22.44 12.21 22.5 12 22.5C11.79 22.5 11.59 22.44 11.43 22.32L3.53 17.88C3.21 17.71 3 17.38 3 17V8C3 7.62 3.21 7.29 3.53 7.12L11.43 2.68C11.59 2.56 11.79 2.5 12 2.5C12.21 2.5 12.41 2.56 12.57 2.68L20.47 7.12C20.79 7.29 21 7.62 21 8V17ZM12 4.65L5 8.59V16.41L12 20.35L19 16.41V8.59L12 4.65Z" fill="#000021"/>
</svg>
